<svg width="16" height="16" viewBox="0 0 16 16" fill="none" xmlns="http://www.w3.org/2000/svg">
<path d="M0.75 6.00066H5.25C5.55312 6.00066 5.82812 5.81941 5.94375 5.53816C6.05937 5.25691 5.99688 4.93503 5.78125 4.71941L4.32188 3.26003C6.675 1.42878 10.0812 1.59441 12.2437 3.75691C14.5875 6.10066 14.5875 9.89753 12.2437 12.2413C9.9 14.585 6.10313 14.585 3.75938 12.2413C3.44063 11.9225 3.16563 11.5757 2.93438 11.21C2.6375 10.7444 2.01875 10.6069 1.55313 10.9038C1.0875 11.2007 0.95 11.8194 1.24688 12.285C1.55313 12.7725 1.91875 13.235 2.34375 13.6569C5.46875 16.7819 10.5312 16.7819 13.6562 13.6569C16.7812 10.5319 16.7812 5.46941 13.6562 2.34441C10.7125 -0.602468 6.04062 -0.771219 2.89687 1.83816L1.28125 0.219407C1.06562 0.00690649 0.74375 -0.0587185 0.4625 0.0569065C0.18125 0.172532 0 0.447531 0 0.750656V5.25066C0 5.66628 0.334375 6.00066 0.75 6.00066Z" fill="white"/>
</svg>
