<svg width="27" height="27" viewBox="0 0 27 27" fill="none" xmlns="http://www.w3.org/2000/svg">
<path d="M13.5 11.6094C14.0011 11.6095 14.4815 11.8088 14.8359 12.1631C15.1904 12.5176 15.3896 12.9987 15.3896 13.5C15.3896 14.0012 15.1904 14.4815 14.8359 14.8359C14.4815 15.1904 14.0012 15.3896 13.5 15.3896C12.9987 15.3896 12.5176 15.1904 12.1631 14.8359C11.8088 14.4815 11.6095 14.0011 11.6094 13.5C11.6094 12.9987 11.8086 12.5176 12.1631 12.1631C12.5176 11.8086 12.9987 11.6094 13.5 11.6094Z" fill="black" stroke="black"/>
<path d="M4.44531 2.2793C4.94778 2.18526 5.65574 2.20458 6.16113 2.70996L6.2002 2.74902L6.2334 2.79395L7.92578 5.07715C8.66409 5.86615 8.64031 7.09497 7.87598 7.86426L7.87695 7.86523C7.1095 8.64661 5.87392 8.65734 5.08105 7.9248L2.7959 6.23145L2.75098 6.19824L2.71191 6.15918C2.20861 5.65586 2.18423 4.95036 2.27734 4.44531C2.37409 3.92072 2.63325 3.37659 3.00586 3.00391L3.01074 2.99902C3.38138 2.63501 3.92231 2.37727 4.44531 2.2793Z" fill="black" stroke="black" stroke-width="1.5"/>
<path d="M20.8379 2.71191C21.3412 2.20862 22.0467 2.18425 22.5518 2.27734C23.0763 2.37405 23.6205 2.63328 23.9932 3.00586C24.3659 3.37858 24.6249 3.92354 24.7217 4.44824C24.8147 4.95327 24.7903 5.65795 24.2871 6.16113L24.248 6.2002L24.2041 6.2334L21.9199 7.92578C21.1309 8.66401 19.9021 8.64038 19.1328 7.87598L19.1318 7.87695C18.3506 7.10952 18.3399 5.87389 19.0723 5.08105L20.7666 2.7959L20.7988 2.75098L20.8379 2.71191Z" fill="black" stroke="black" stroke-width="1.5"/>
<path d="M19.127 19.127C19.8938 18.3513 21.1237 18.342 21.915 19.0703L24.2041 20.7666L24.248 20.7988L24.2871 20.8379C24.7904 21.3412 24.8148 22.0467 24.7217 22.5518C24.6249 23.0765 24.3659 23.6204 23.9932 23.9932L23.9883 23.998C23.6175 24.3621 23.0768 24.6199 22.5537 24.7178C22.0512 24.8118 21.3433 24.7925 20.8379 24.2871L20.7988 24.248L20.7666 24.2041L19.0732 21.9199C18.3338 21.1293 18.3581 19.8958 19.127 19.127Z" fill="black" stroke="black" stroke-width="1.5"/>
<path d="M5.08594 19.0684C5.87566 18.3434 7.09964 18.353 7.86621 19.123L7.86719 19.1221C7.8704 19.1252 7.87377 19.1287 7.87695 19.1318L7.87598 19.1328C8.64696 19.9 8.6556 21.1253 7.92871 21.915L6.2334 24.2041L6.2002 24.248L6.16113 24.2871C5.65781 24.7904 4.95232 24.8148 4.44727 24.7217C3.92264 24.6249 3.37852 24.3658 3.00586 23.9932L3.00098 23.9883C2.63697 23.6175 2.37914 23.0768 2.28125 22.5537C2.18722 22.0512 2.20653 21.3433 2.71191 20.8379L2.75098 20.7988L2.7959 20.7666L5.08594 19.0684Z" fill="black" stroke="black" stroke-width="1.5"/>
</svg>
