<?xml version="1.0" encoding="utf-8"?>
<!-- Svg Vector Icons : http://www.onlinewebfonts.com/icon -->
<!DOCTYPE svg PUBLIC "-//W3C//DTD SVG 1.1//EN" "http://www.w3.org/Graphics/SVG/1.1/DTD/svg11.dtd">
<svg version="1.1" xmlns="http://www.w3.org/2000/svg" xmlns:xlink="http://www.w3.org/1999/xlink" x="0px" y="0px" viewBox="0 0 256 256" enable-background="new 0 0 256 256" xml:space="preserve">
<metadata> Svg Vector Icons : http://www.onlinewebfonts.com/icon </metadata>
<g><g><g><g><path fill="#000000" d="M112.4 128a15.6 15.6 0 1 0 31.2 0a15.6 15.6 0 1 0 -31.2 0z"/><path fill="#000000" d="M58.9,38.8L39.7,12.9c-5.6-5.6-17.9-2.2-23.5,3.3c-5.6,5.6-8.9,17.9-3.3,23.5l25.9,19.2c5.6,5.6,14.6,5.6,20.1,0C64.5,53.3,64.5,44.3,58.9,38.8z"/><path fill="#000000" d="M239.8,16.2c-5.6-5.6-17.9-8.9-23.5-3.3l-19.2,25.9c-5.6,5.6-5.6,14.6,0,20.1c5.6,5.6,14.6,5.6,20.1,0l25.9-19.2C248.7,34.1,245.4,21.8,239.8,16.2z"/><path fill="#000000" d="M217.2,197.1c-5.6-5.6-14.6-5.6-20.1,0c-5.6,5.6-5.6,14.6,0,20.1l19.2,25.9c5.6,5.6,17.9,2.2,23.5-3.3c5.6-5.6,8.9-17.9,3.3-23.5L217.2,197.1z"/><path fill="#000000" d="M38.8,197.1l-25.9,19.2c-5.6,5.6-2.2,17.9,3.3,23.5c5.6,5.6,17.9,8.9,23.5,3.3l19.2-25.9c5.6-5.6,5.6-14.6,0-20.1C53.4,191.5,44.4,191.5,38.8,197.1z"/></g></g><g></g><g></g><g></g><g></g><g></g><g></g><g></g><g></g><g></g><g></g><g></g><g></g><g></g><g></g><g></g></g></g>
</svg>