<svg width="28" height="28" viewBox="0 0 28 28" fill="none" xmlns="http://www.w3.org/2000/svg">
<path d="M13.6484 11.8672C14.1496 11.8673 14.63 12.0666 14.9844 12.4209C15.3389 12.7754 15.5381 13.2565 15.5381 13.7578C15.538 14.259 15.3388 14.7393 14.9844 15.0938C14.63 15.4482 14.1497 15.6474 13.6484 15.6475C13.1471 15.6475 12.666 15.4482 12.3115 15.0938C11.9572 14.7393 11.7579 14.259 11.7578 13.7578C11.7578 13.2565 11.957 12.7754 12.3115 12.4209C12.666 12.0664 13.1471 11.8672 13.6484 11.8672Z" fill="#4D0E09" stroke="#4D0E09"/>
<path d="M4.59375 2.53711C5.09622 2.44307 5.80418 2.46239 6.30957 2.96777L6.34863 3.00684L6.38184 3.05176L8.07422 5.33496C8.81253 6.12396 8.78874 7.35278 8.02441 8.12207L8.02539 8.12305C7.25793 8.90442 6.02236 8.91515 5.22949 8.18262L2.94434 6.48926L2.89941 6.45605L2.86035 6.41699C2.35704 5.91367 2.33267 5.20817 2.42578 4.70312C2.52252 4.17853 2.78169 3.6344 3.1543 3.26172L3.15918 3.25684C3.52981 2.89282 4.07074 2.63508 4.59375 2.53711Z" fill="#4D0E09" stroke="#4D0E09" stroke-width="1.5"/>
<path d="M20.9863 2.96973C21.4896 2.46643 22.1951 2.44206 22.7002 2.53516C23.2248 2.63187 23.7689 2.89109 24.1416 3.26367C24.5143 3.63639 24.7734 4.18135 24.8701 4.70605C24.9631 5.21108 24.9387 5.91576 24.4355 6.41895L24.3965 6.45801L24.3525 6.49121L22.0684 8.18359C21.2793 8.92182 20.0505 8.8982 19.2812 8.13379L19.2803 8.13477C18.4991 7.36734 18.4883 6.1317 19.2207 5.33887L20.915 3.05371L20.9473 3.00879L20.9863 2.96973Z" fill="#4D0E09" stroke="#4D0E09" stroke-width="1.5"/>
<path d="M19.2754 19.3848C20.0422 18.6091 21.2721 18.5998 22.0635 19.3281L24.3525 21.0244L24.3965 21.0566L24.4355 21.0957C24.9389 21.599 24.9632 22.3045 24.8701 22.8096C24.7734 23.3343 24.5143 23.8783 24.1416 24.251L24.1367 24.2559C23.766 24.6199 23.2252 24.8777 22.7021 24.9756C22.1997 25.0696 21.4917 25.0503 20.9863 24.5449L20.9473 24.5059L20.915 24.4619L19.2217 22.1777C18.4822 21.3871 18.5066 20.1536 19.2754 19.3848Z" fill="#4D0E09" stroke="#4D0E09" stroke-width="1.5"/>
<path d="M5.23438 19.3262C6.0241 18.6012 7.24808 18.6108 8.01465 19.3809L8.01562 19.3799C8.01884 19.383 8.0222 19.3865 8.02539 19.3896L8.02441 19.3906C8.79539 20.1578 8.80404 21.3831 8.07715 22.1729L6.38184 24.4619L6.34863 24.5059L6.30957 24.5449C5.80625 25.0482 5.10076 25.0726 4.5957 24.9795C4.07107 24.8827 3.52696 24.6236 3.1543 24.251L3.14941 24.2461C2.7854 23.8754 2.52758 23.3346 2.42969 22.8115C2.33566 22.309 2.35497 21.6011 2.86035 21.0957L2.89941 21.0566L2.94434 21.0244L5.23438 19.3262Z" fill="#4D0E09" stroke="#4D0E09" stroke-width="1.5"/>
</svg>
