<svg width="22" height="16" viewBox="0 0 22 16" fill="none" xmlns="http://www.w3.org/2000/svg">
<path d="M10.9999 5L16.9999 11M16.9999 5L10.9999 11M8.99994 1C8.50302 1.00003 8.02391 1.18504 7.65594 1.519L1.32794 7.259C1.22466 7.35273 1.14213 7.46704 1.08565 7.59457C1.02918 7.72209 1 7.86003 1 7.9995C1 8.13897 1.02918 8.27691 1.08565 8.40443C1.14213 8.53196 1.22466 8.64627 1.32794 8.74L7.65594 14.481C8.02391 14.815 8.50302 15 8.99994 15H18.9999C19.5304 15 20.0391 14.7893 20.4142 14.4142C20.7892 14.0391 20.9999 13.5304 20.9999 13V3C20.9999 2.46957 20.7892 1.96086 20.4142 1.58579C20.0391 1.21071 19.5304 1 18.9999 1H8.99994Z" stroke="white" stroke-width="2" stroke-linecap="round" stroke-linejoin="round"/>
</svg>
